<mxfile host="65bd71144e">
    <diagram id="kt3Hb_Pf2nFLabOtHMER" name="Page-1">
        <mxGraphModel dx="1207" dy="1664" grid="1" gridSize="10" guides="1" tooltips="1" connect="1" arrows="1" fold="1" page="1" pageScale="1" pageWidth="850" pageHeight="1100" math="0" shadow="0">
            <root>
                <mxCell id="0"/>
                <mxCell id="1" parent="0"/>
                <mxCell id="2" value="" style="whiteSpace=wrap;html=1;aspect=fixed;" vertex="1" parent="1">
                    <mxGeometry x="-30" y="80" width="220" height="220" as="geometry"/>
                </mxCell>
                <mxCell id="3" value="" style="whiteSpace=wrap;html=1;aspect=fixed;" vertex="1" parent="1">
                    <mxGeometry x="260" y="80" width="220" height="220" as="geometry"/>
                </mxCell>
                <mxCell id="4" value="" style="whiteSpace=wrap;html=1;aspect=fixed;" vertex="1" parent="1">
                    <mxGeometry x="540" y="80" width="210" height="210" as="geometry"/>
                </mxCell>
                <mxCell id="5" value="&lt;font style=&quot;font-size: 22px;&quot;&gt;Not So Fungible&lt;/font&gt;" style="rounded=1;whiteSpace=wrap;html=1;" vertex="1" parent="1">
                    <mxGeometry x="320" y="-130" width="420" height="60" as="geometry"/>
                </mxCell>
                <mxCell id="6" value="User" style="rounded=0;whiteSpace=wrap;html=1;fontSize=22;fillColor=#ffe6cc;strokeColor=#d79b00;" vertex="1" parent="1">
                    <mxGeometry x="-30" y="80" width="220" height="30" as="geometry"/>
                </mxCell>
                <mxCell id="7" value="Collection" style="rounded=0;whiteSpace=wrap;html=1;fontSize=22;fillColor=#ffe6cc;strokeColor=#d79b00;" vertex="1" parent="1">
                    <mxGeometry x="260" y="80" width="220" height="30" as="geometry"/>
                </mxCell>
                <mxCell id="8" value="NFT" style="rounded=0;whiteSpace=wrap;html=1;fontSize=22;fillColor=#ffe6cc;strokeColor=#d79b00;" vertex="1" parent="1">
                    <mxGeometry x="540" y="80" width="220" height="30" as="geometry"/>
                </mxCell>
                <mxCell id="9" value="user_password" style="rounded=0;whiteSpace=wrap;html=1;fontSize=15;" vertex="1" parent="1">
                    <mxGeometry x="-30" y="200" width="220" height="30" as="geometry"/>
                </mxCell>
                <mxCell id="10" value="user_email" style="rounded=0;whiteSpace=wrap;html=1;fontSize=15;" vertex="1" parent="1">
                    <mxGeometry x="-30" y="230" width="220" height="30" as="geometry"/>
                </mxCell>
                <mxCell id="11" value="user_name" style="rounded=0;whiteSpace=wrap;html=1;fontSize=15;" vertex="1" parent="1">
                    <mxGeometry x="-30" y="170" width="220" height="30" as="geometry"/>
                </mxCell>
                <mxCell id="12" value="collection_name" style="rounded=0;whiteSpace=wrap;html=1;fontSize=15;" vertex="1" parent="1">
                    <mxGeometry x="260" y="140" width="220" height="30" as="geometry"/>
                </mxCell>
                <mxCell id="13" value="user_fullname" style="rounded=0;whiteSpace=wrap;html=1;fontSize=15;" vertex="1" parent="1">
                    <mxGeometry x="-30" y="140" width="220" height="30" as="geometry"/>
                </mxCell>
                <mxCell id="14" value="nft_name" style="rounded=0;whiteSpace=wrap;html=1;fontSize=15;" vertex="1" parent="1">
                    <mxGeometry x="540" y="140" width="220" height="30" as="geometry"/>
                </mxCell>
                <mxCell id="15" value="nft_price" style="rounded=0;whiteSpace=wrap;html=1;fontSize=15;" vertex="1" parent="1">
                    <mxGeometry x="540" y="170" width="220" height="30" as="geometry"/>
                </mxCell>
                <mxCell id="16" value="nft_description" style="rounded=0;whiteSpace=wrap;html=1;fontSize=15;" vertex="1" parent="1">
                    <mxGeometry x="540" y="200" width="220" height="30" as="geometry"/>
                </mxCell>
                <mxCell id="17" value="&lt;ul style=&quot;font-size: 13px;&quot;&gt;&lt;li&gt;&lt;span style=&quot;background-color: initial; font-size: 13px;&quot;&gt;has_one :user_wallet&lt;/span&gt;&lt;/li&gt;&lt;li&gt;has_many :purchased_nfts, through: user_wallet&lt;/li&gt;&lt;li&gt;has_many :reviews&lt;/li&gt;&lt;/ul&gt;" style="rounded=0;whiteSpace=wrap;html=1;fontSize=22;" vertex="1" parent="1">
                    <mxGeometry x="-30" y="-10" width="220" height="70" as="geometry"/>
                </mxCell>
                <mxCell id="18" value="&lt;div&gt;&lt;span style=&quot;font-size: 13px;&quot;&gt;&lt;br&gt;&lt;/span&gt;&lt;/div&gt;&lt;ul style=&quot;font-size: 13px;&quot;&gt;&lt;li&gt;has_many :nfts&lt;/li&gt;&lt;/ul&gt;" style="rounded=0;whiteSpace=wrap;html=1;fontSize=22;" vertex="1" parent="1">
                    <mxGeometry x="260" width="220" height="60" as="geometry"/>
                </mxCell>
                <mxCell id="19" value="collection_description" style="rounded=0;whiteSpace=wrap;html=1;fontSize=15;" vertex="1" parent="1">
                    <mxGeometry x="260" y="170" width="220" height="30" as="geometry"/>
                </mxCell>
                <mxCell id="20" value="&lt;ul style=&quot;font-size: 13px;&quot;&gt;&lt;li&gt;belongs_to :collection&lt;/li&gt;&lt;li&gt;has_many :reviews&lt;/li&gt;&lt;/ul&gt;" style="rounded=0;whiteSpace=wrap;html=1;fontSize=22;" vertex="1" parent="1">
                    <mxGeometry x="540" width="220" height="60" as="geometry"/>
                </mxCell>
                <mxCell id="21" value="collection_id" style="rounded=0;whiteSpace=wrap;html=1;fontSize=15;" vertex="1" parent="1">
                    <mxGeometry x="540" y="260" width="220" height="30" as="geometry"/>
                </mxCell>
                <mxCell id="22" value="user_admin" style="rounded=0;whiteSpace=wrap;html=1;fontSize=15;" vertex="1" parent="1">
                    <mxGeometry x="-30" y="260" width="220" height="30" as="geometry"/>
                </mxCell>
                <mxCell id="23" value="nft_image" style="rounded=0;whiteSpace=wrap;html=1;fontSize=15;" vertex="1" parent="1">
                    <mxGeometry x="540" y="230" width="220" height="30" as="geometry"/>
                </mxCell>
                <mxCell id="24" value="collection_rating" style="rounded=0;whiteSpace=wrap;html=1;fontSize=15;" vertex="1" parent="1">
                    <mxGeometry x="260" y="200" width="220" height="30" as="geometry"/>
                </mxCell>
                <mxCell id="25" value="" style="whiteSpace=wrap;html=1;aspect=fixed;" vertex="1" parent="1">
                    <mxGeometry x="810" y="80" width="220" height="220" as="geometry"/>
                </mxCell>
                <mxCell id="26" value="Purchased_nft" style="rounded=0;whiteSpace=wrap;html=1;fontSize=22;fillColor=#ffe6cc;strokeColor=#d79b00;" vertex="1" parent="1">
                    <mxGeometry x="810" y="80" width="220" height="30" as="geometry"/>
                </mxCell>
                <mxCell id="27" value="&lt;ul style=&quot;font-size: 12px;&quot;&gt;&lt;li style=&quot;&quot;&gt;&lt;font style=&quot;font-size: 12px;&quot;&gt;belongs_to :user&lt;/font&gt;&lt;/li&gt;&lt;li style=&quot;&quot;&gt;&lt;font style=&quot;font-size: 12px;&quot;&gt;&lt;strike&gt;belongs_to :nft&lt;/strike&gt;&lt;/font&gt;&lt;/li&gt;&lt;li style=&quot;&quot;&gt;&lt;font style=&quot;font-size: 12px;&quot;&gt;belongs_to :user_wallet&lt;/font&gt;&lt;/li&gt;&lt;/ul&gt;" style="rounded=0;whiteSpace=wrap;html=1;fontSize=22;" vertex="1" parent="1">
                    <mxGeometry x="810" y="-10" width="220" height="70" as="geometry"/>
                </mxCell>
                <mxCell id="28" value="nft_name" style="rounded=0;whiteSpace=wrap;html=1;fontSize=15;" vertex="1" parent="1">
                    <mxGeometry x="810" y="140" width="220" height="30" as="geometry"/>
                </mxCell>
                <mxCell id="29" value="nft_description" style="rounded=0;whiteSpace=wrap;html=1;fontSize=15;" vertex="1" parent="1">
                    <mxGeometry x="810" y="170" width="220" height="30" as="geometry"/>
                </mxCell>
                <mxCell id="30" value="user_id" style="rounded=0;whiteSpace=wrap;html=1;fontSize=15;" vertex="1" parent="1">
                    <mxGeometry x="810" y="230" width="220" height="30" as="geometry"/>
                </mxCell>
                <mxCell id="31" value="nft_image" style="rounded=0;whiteSpace=wrap;html=1;fontSize=15;" vertex="1" parent="1">
                    <mxGeometry x="810" y="200" width="220" height="30" as="geometry"/>
                </mxCell>
                <mxCell id="32" value="" style="whiteSpace=wrap;html=1;aspect=fixed;" vertex="1" parent="1">
                    <mxGeometry x="1080" y="80" width="220" height="220" as="geometry"/>
                </mxCell>
                <mxCell id="33" value="User_wallet" style="rounded=0;whiteSpace=wrap;html=1;fontSize=22;fillColor=#ffe6cc;strokeColor=#d79b00;" vertex="1" parent="1">
                    <mxGeometry x="1080" y="80" width="220" height="30" as="geometry"/>
                </mxCell>
                <mxCell id="34" value="user_id" style="rounded=0;whiteSpace=wrap;html=1;fontSize=15;" vertex="1" parent="1">
                    <mxGeometry x="1080" y="200" width="220" height="30" as="geometry"/>
                </mxCell>
                <mxCell id="35" value="&lt;ul style=&quot;font-size: 13px;&quot;&gt;&lt;li&gt;belongs_to :user&lt;/li&gt;&lt;li&gt;has_many :purchased_nfts&lt;/li&gt;&lt;/ul&gt;" style="rounded=0;whiteSpace=wrap;html=1;fontSize=22;" vertex="1" parent="1">
                    <mxGeometry x="1080" width="220" height="60" as="geometry"/>
                </mxCell>
                <mxCell id="36" value="user_wallet_available_funds" style="rounded=0;whiteSpace=wrap;html=1;fontSize=15;" vertex="1" parent="1">
                    <mxGeometry x="1080" y="140" width="220" height="30" as="geometry"/>
                </mxCell>
                <mxCell id="37" value="user_wallet_nft_count" style="rounded=0;whiteSpace=wrap;html=1;fontSize=15;" vertex="1" parent="1">
                    <mxGeometry x="1080" y="170" width="220" height="30" as="geometry"/>
                </mxCell>
                <mxCell id="38" value="&lt;hr&gt;burn_nft" style="rounded=0;whiteSpace=wrap;html=1;fontSize=15;" vertex="1" parent="1">
                    <mxGeometry x="810" y="260" width="220" height="30" as="geometry"/>
                </mxCell>
                <mxCell id="39" value="user_waller_id" style="rounded=0;whiteSpace=wrap;html=1;fontSize=15;" vertex="1" parent="1">
                    <mxGeometry x="810" y="290" width="220" height="30" as="geometry"/>
                </mxCell>
                <mxCell id="40" value="" style="rounded=0;whiteSpace=wrap;html=1;fontSize=15;" vertex="1" parent="1">
                    <mxGeometry x="540" y="110" width="220" height="30" as="geometry"/>
                </mxCell>
                <mxCell id="41" value="" style="whiteSpace=wrap;html=1;aspect=fixed;" vertex="1" parent="1">
                    <mxGeometry x="560" y="480" width="220" height="220" as="geometry"/>
                </mxCell>
                <mxCell id="42" value="Review" style="rounded=0;whiteSpace=wrap;html=1;fontSize=22;fillColor=#ffe6cc;strokeColor=#d79b00;" vertex="1" parent="1">
                    <mxGeometry x="560" y="480" width="220" height="30" as="geometry"/>
                </mxCell>
                <mxCell id="43" value="review_title" style="rounded=0;whiteSpace=wrap;html=1;fontSize=15;" vertex="1" parent="1">
                    <mxGeometry x="560" y="540" width="220" height="30" as="geometry"/>
                </mxCell>
                <mxCell id="44" value="&lt;div&gt;&lt;span style=&quot;font-size: 13px;&quot;&gt;&lt;br&gt;&lt;/span&gt;&lt;/div&gt;&lt;ul style=&quot;font-size: 13px;&quot;&gt;&lt;li&gt;belongs_to :user&lt;/li&gt;&lt;li&gt;belongs_to: nft&lt;/li&gt;&lt;/ul&gt;" style="rounded=0;whiteSpace=wrap;html=1;fontSize=22;" vertex="1" parent="1">
                    <mxGeometry x="560" y="390" width="230" height="80" as="geometry"/>
                </mxCell>
                <mxCell id="45" value="review_description" style="rounded=0;whiteSpace=wrap;html=1;fontSize=15;" vertex="1" parent="1">
                    <mxGeometry x="560" y="570" width="220" height="30" as="geometry"/>
                </mxCell>
                <mxCell id="46" value="review_rating" style="rounded=0;whiteSpace=wrap;html=1;fontSize=15;" vertex="1" parent="1">
                    <mxGeometry x="560" y="600" width="220" height="30" as="geometry"/>
                </mxCell>
                <mxCell id="47" value="user_id" style="rounded=0;whiteSpace=wrap;html=1;fontSize=15;" vertex="1" parent="1">
                    <mxGeometry x="560" y="630" width="220" height="30" as="geometry"/>
                </mxCell>
                <mxCell id="48" value="" style="whiteSpace=wrap;html=1;aspect=fixed;" vertex="1" parent="1">
                    <mxGeometry x="-30" y="480" width="220" height="220" as="geometry"/>
                </mxCell>
                <mxCell id="49" value="Waitlist" style="rounded=0;whiteSpace=wrap;html=1;fontSize=22;fillColor=#ffe6cc;strokeColor=#d79b00;" vertex="1" parent="1">
                    <mxGeometry x="-30" y="480" width="220" height="30" as="geometry"/>
                </mxCell>
                <mxCell id="50" value="email" style="rounded=0;whiteSpace=wrap;html=1;fontSize=15;" vertex="1" parent="1">
                    <mxGeometry x="-30" y="540" width="220" height="30" as="geometry"/>
                </mxCell>
                <mxCell id="51" value="&lt;div&gt;&lt;span style=&quot;font-size: 13px;&quot;&gt;&lt;br&gt;&lt;/span&gt;&lt;/div&gt;&lt;ul style=&quot;font-size: 13px;&quot;&gt;&lt;li&gt;has_many :users&lt;/li&gt;&lt;li&gt;belongs_to :collection&lt;/li&gt;&lt;/ul&gt;" style="rounded=0;whiteSpace=wrap;html=1;fontSize=22;" vertex="1" parent="1">
                    <mxGeometry x="-30" y="400" width="220" height="60" as="geometry"/>
                </mxCell>
                <mxCell id="52" value="collection_name" style="rounded=0;whiteSpace=wrap;html=1;fontSize=15;" vertex="1" parent="1">
                    <mxGeometry x="-30" y="570" width="220" height="30" as="geometry"/>
                </mxCell>
                <mxCell id="53" value="" style="endArrow=none;html=1;rounded=0;fontSize=12;entryX=1;entryY=0;entryDx=0;entryDy=0;" edge="1" parent="1" target="51">
                    <mxGeometry width="50" height="50" relative="1" as="geometry">
                        <mxPoint x="-30" y="700" as="sourcePoint"/>
                        <mxPoint x="20" y="650" as="targetPoint"/>
                    </mxGeometry>
                </mxCell>
            </root>
        </mxGraphModel>
    </diagram>
</mxfile>